<svg width="50" height="48" viewBox="0 0 50 48" fill="none" xmlns="http://www.w3.org/2000/svg">
<g id="deleteBtn">
<ellipse id="Ellipse 2" cx="25" cy="24" rx="25" ry="24" fill="#FF4133"/>
<path id="Vector" d="M18.0714 30.5938C18.0714 30.9667 18.2408 31.3244 18.5421 31.5881C18.8435 31.8518 19.2523 32 19.6786 32H29.3214C29.7477 32 30.1565 31.8518 30.4578 31.5881C30.7592 31.3244 30.9286 30.9667 30.9286 30.5938V20.75H18.0714V30.5938ZM27.1786 23.0938C27.1786 22.9694 27.235 22.8502 27.3355 22.7623C27.4359 22.6744 27.5722 22.625 27.7143 22.625C27.8564 22.625 27.9926 22.6744 28.0931 22.7623C28.1936 22.8502 28.25 22.9694 28.25 23.0938V29.6563C28.25 29.7806 28.1936 29.8998 28.0931 29.9877C27.9926 30.0756 27.8564 30.125 27.7143 30.125C27.5722 30.125 27.4359 30.0756 27.3355 29.9877C27.235 29.8998 27.1786 29.7806 27.1786 29.6563V23.0938ZM23.9643 23.0938C23.9643 22.9694 24.0207 22.8502 24.1212 22.7623C24.2217 22.6744 24.3579 22.625 24.5 22.625C24.6421 22.625 24.7783 22.6744 24.8788 22.7623C24.9793 22.8502 25.0357 22.9694 25.0357 23.0938V29.6563C25.0357 29.7806 24.9793 29.8998 24.8788 29.9877C24.7783 30.0756 24.6421 30.125 24.5 30.125C24.3579 30.125 24.2217 30.0756 24.1212 29.9877C24.0207 29.8998 23.9643 29.7806 23.9643 29.6563V23.0938ZM20.75 23.0938C20.75 22.9694 20.8064 22.8502 20.9069 22.7623C21.0074 22.6744 21.1436 22.625 21.2857 22.625C21.4278 22.625 21.5641 22.6744 21.6645 22.7623C21.765 22.8502 21.8214 22.9694 21.8214 23.0938V29.6563C21.8214 29.7806 21.765 29.8998 21.6645 29.9877C21.5641 30.0756 21.4278 30.125 21.2857 30.125C21.1436 30.125 21.0074 30.0756 20.9069 29.9877C20.8064 29.8998 20.75 29.7806 20.75 29.6563V23.0938ZM31.4643 17.9375H27.4464L27.1317 17.3897C27.065 17.2725 26.9623 17.174 26.8352 17.1052C26.708 17.0363 26.5614 16.9999 26.4118 17H22.5848C22.4356 16.9995 22.2893 17.0358 22.1625 17.1047C22.0358 17.1736 21.9338 17.2724 21.8683 17.3897L21.5536 17.9375H17.5357C17.3936 17.9375 17.2574 17.9869 17.1569 18.0748C17.0564 18.1627 17 18.2819 17 18.4063V19.3438C17 19.4681 17.0564 19.5873 17.1569 19.6752C17.2574 19.7631 17.3936 19.8125 17.5357 19.8125H31.4643C31.6064 19.8125 31.7426 19.7631 31.8431 19.6752C31.9436 19.5873 32 19.4681 32 19.3438V18.4063C32 18.2819 31.9436 18.1627 31.8431 18.0748C31.7426 17.9869 31.6064 17.9375 31.4643 17.9375Z" fill="white"/>
</g>
</svg>
