<svg xmlns="http://www.w3.org/2000/svg" xmlns:xlink="http://www.w3.org/1999/xlink" version="1.1" x="0px" y="0px" viewBox="0 0 100 125" style="enable-background:new 0 0 100 100;" xml:space="preserve"><style type="text/css">
	.st0{fill-rule:evenodd;clip-rule:evenodd;}
</style><path class="st0" d="M84.564,10.446l5.129,5.143c2.294,2.607,2.203,6.249-0.144,8.596L53.827,59.907  c-0.405,0.405-0.925,0.625-1.455,0.661l-12.267,1.908c-1.514,0.235-2.836-1.071-2.578-2.629l1.932-12.417  c0.077-0.495,0.308-0.926,0.637-1.255l-0.006-0.006L75.81,10.446c2.477-2.478,6.58-2.332,8.749,0.005L84.564,10.446L84.564,10.446z   M78.473,45.607V82.48h0.009c0,2.383-1.952,4.329-4.338,4.329h-56.63c-2.389,0-4.329-1.94-4.329-4.329v-56.63  c0-2.381,1.97-4.338,4.329-4.338v0.009h36.873c2.994,0,2.994-4.548,0-4.548H17.514v0.009c-4.903,0.001-8.877,3.986-8.877,8.868  v56.63c0,4.875,4.002,8.877,8.877,8.877h56.63c4.88,0,8.868-3.997,8.869-8.877h0.009V45.607  C83.021,42.613,78.473,42.613,78.473,45.607L78.473,45.607z M83.841,16.154l-2.492-2.492l0.004-0.004  c-0.634-0.629-1.688-0.634-2.327,0.004L43.818,48.869l-1.346,8.653l8.653-1.346l35.208-35.208  C87.916,19.386,85.345,17.658,83.841,16.154z"/><text x="0" y="115" fill="#000000" font-size="5px" font-weight="bold" font-family="'Helvetica Neue', Helvetica, Arial-Unicode, Arial, Sans-serif">Created by Melisa Lutfiani</text><text x="0" y="120" fill="#000000" font-size="5px" font-weight="bold" font-family="'Helvetica Neue', Helvetica, Arial-Unicode, Arial, Sans-serif">from the Noun Project</text></svg>