<svg width="81" height="82" viewBox="0 0 81 82" fill="none" xmlns="http://www.w3.org/2000/svg">
<g id="floatinBtn">
<g id="Ellipse 1" filter="url(#filter0_d_2_77)">
<ellipse cx="40.5" cy="37" rx="35.5" ry="36" fill="#FF4133"/>
</g>
<path id="Vector" d="M50.3125 34.5938H43.2812V27.5625C43.2812 26.6997 42.5815 26 41.7188 26H40.1562C39.2935 26 38.5938 26.6997 38.5938 27.5625V34.5938H31.5625C30.6997 34.5938 30 35.2935 30 36.1562V37.7188C30 38.5815 30.6997 39.2812 31.5625 39.2812H38.5938V46.3125C38.5938 47.1753 39.2935 47.875 40.1562 47.875H41.7188C42.5815 47.875 43.2812 47.1753 43.2812 46.3125V39.2812H50.3125C51.1753 39.2812 51.875 38.5815 51.875 37.7188V36.1562C51.875 35.2935 51.1753 34.5938 50.3125 34.5938Z" fill="white"/>
</g>
<defs>
<filter id="filter0_d_2_77" x="0" y="0" width="81" height="82" filterUnits="userSpaceOnUse" color-interpolation-filters="sRGB">
<feFlood flood-opacity="0" result="BackgroundImageFix"/>
<feColorMatrix in="SourceAlpha" type="matrix" values="0 0 0 0 0 0 0 0 0 0 0 0 0 0 0 0 0 0 127 0" result="hardAlpha"/>
<feMorphology radius="1" operator="dilate" in="SourceAlpha" result="effect1_dropShadow_2_77"/>
<feOffset dy="4"/>
<feGaussianBlur stdDeviation="2"/>
<feComposite in2="hardAlpha" operator="out"/>
<feColorMatrix type="matrix" values="0 0 0 0 0 0 0 0 0 0 0 0 0 0 0 0 0 0 0.25 0"/>
<feBlend mode="normal" in2="BackgroundImageFix" result="effect1_dropShadow_2_77"/>
<feBlend mode="normal" in="SourceGraphic" in2="effect1_dropShadow_2_77" result="shape"/>
</filter>
</defs>
</svg>
